<?xml version="1.0" standalone="no"?>
<!DOCTYPE svg PUBLIC "-//W3C//DTD SVG 20010904//EN"
 "http://www.w3.org/TR/2001/REC-SVG-20010904/DTD/svg10.dtd">
<svg version="1.0" xmlns="http://www.w3.org/2000/svg"
 width="56.000000pt" height="56.000000pt" viewBox="0 0 56.000000 56.000000"
 preserveAspectRatio="xMidYMid meet">

<g transform="translate(0.000000,56.000000) scale(0.100000,-0.100000)"
fill="#000000" stroke="none">
<path d="M258 517 c-7 -8 -26 -41 -42 -74 l-29 -61 -74 -11 c-42 -6 -79 -14
-84 -17 -20 -12 -6 -36 47 -87 l57 -54 -13 -82 c-19 -111 -12 -116 85 -68 l75
37 70 -35 c101 -51 111 -42 89 81 l-11 63 56 55 c53 51 67 78 47 90 -5 3 -44
11 -86 17 l-78 12 -29 66 c-37 81 -53 95 -80 68z m59 -101 c31 -63 32 -64 80
-70 26 -4 61 -9 77 -12 l28 -6 -55 -57 -55 -56 13 -70 c7 -38 12 -71 10 -73
-2 -2 -34 12 -71 32 l-67 35 -64 -36 c-35 -19 -66 -34 -68 -32 -2 2 3 36 10
74 l13 70 -55 56 c-62 64 -64 61 45 75 l54 7 31 63 c17 35 34 64 37 64 3 0 20
-29 37 -64z"/>
</g>
</svg>
