<svg width="291" height="56" viewBox="0 0 291 56" fill="none" xmlns="http://www.w3.org/2000/svg">
<path d="M19.8578 19.0844L19.0777 19.1982L4.8735 21.269L4.8724 21.2692C3.55713 21.4599 3.02589 23.0867 3.98269 24.0183L3.98312 24.0187L14.2595 34.0326L14.8246 34.5833L14.691 35.3609L12.2606 49.5057C12.0346 50.8265 13.4276 51.8205 14.5906 51.2039L14.5953 51.2014L27.3022 44.5222L28.0002 44.1554L28.6981 44.5222L41.405 51.2014L41.4053 51.2015C42.5783 51.8184 43.9634 50.8179 43.7399 49.5068L19.8578 19.0844ZM19.8578 19.0844L20.2065 18.3774L26.5549 5.50571C26.5549 5.50563 26.555 5.50556 26.555 5.50548C26.555 5.50537 26.5551 5.50526 26.5552 5.50515C27.1445 4.31261 28.8515 4.30972 29.446 5.50684C29.4462 5.5072 29.4464 5.50756 29.4465 5.50791L35.7938 18.3774L36.1425 19.0844L36.9226 19.1982L51.1268 21.269L51.1279 21.2692C52.4432 21.4599 52.9744 23.0867 52.0176 24.0183L52.0172 24.0187L41.7408 34.0326L41.1757 34.5833L41.3093 35.3609L43.7397 49.5057L19.8578 19.0844Z" fill="#D2A01E" stroke="black" stroke-width="3"/>
<path d="M78.8578 19.0844L78.0777 19.1982L63.8735 21.269L63.8724 21.2692C62.5571 21.4599 62.0259 23.0867 62.9827 24.0183L62.9831 24.0187L73.2595 34.0326L73.8246 34.5833L73.691 35.3609L71.2606 49.5057C71.0346 50.8265 72.4276 51.8205 73.5906 51.2039L73.5953 51.2014L86.3022 44.5222L87.0002 44.1554L87.6981 44.5222L100.405 51.2014L100.405 51.2015C101.578 51.8184 102.963 50.8179 102.74 49.5068L78.8578 19.0844ZM78.8578 19.0844L79.2065 18.3774L85.5549 5.50571C85.5549 5.50563 85.555 5.50556 85.555 5.50548C85.555 5.50537 85.5551 5.50526 85.5552 5.50515C86.1445 4.31261 87.8515 4.30972 88.446 5.50684C88.4462 5.5072 88.4464 5.50756 88.4465 5.50791L94.7938 18.3774L95.1425 19.0844L95.9226 19.1982L110.127 21.269L110.128 21.2692C111.443 21.4599 111.974 23.0867 111.018 24.0183L111.017 24.0187L100.741 34.0326L100.176 34.5833L100.309 35.3609L102.74 49.5057L78.8578 19.0844Z" fill="#D2A01E" stroke="black" stroke-width="3"/>
<path d="M137.858 19.0844L137.078 19.1982L122.873 21.269L122.872 21.2692C121.557 21.4599 121.026 23.0867 121.983 24.0183L121.983 24.0187L132.26 34.0326L132.825 34.5833L132.691 35.3609L130.261 49.5057C130.035 50.8265 131.428 51.8205 132.591 51.2039L132.595 51.2014L145.302 44.5222L146 44.1554L146.698 44.5222L159.405 51.2014L159.405 51.2015C160.578 51.8184 161.963 50.8179 161.74 49.5068L137.858 19.0844ZM137.858 19.0844L138.207 18.3774L144.555 5.50571C144.555 5.50563 144.555 5.50556 144.555 5.50548C144.555 5.50537 144.555 5.50526 144.555 5.50515C145.144 4.31261 146.851 4.30972 147.446 5.50684C147.446 5.5072 147.446 5.50756 147.447 5.50791L153.794 18.3774L154.143 19.0844L154.923 19.1982L169.127 21.269L169.128 21.2692C170.443 21.4599 170.974 23.0867 170.018 24.0183L170.017 24.0187L159.741 34.0326L159.176 34.5833L159.309 35.3609L161.74 49.5057L137.858 19.0844Z" fill="#D2A01E" stroke="black" stroke-width="3"/>
<path d="M195.858 19.0844L195.078 19.1982L180.873 21.269L180.872 21.2692C179.557 21.4599 179.026 23.0867 179.983 24.0183L179.983 24.0187L190.26 34.0326L190.825 34.5833L190.691 35.3609L188.261 49.5057C188.035 50.8265 189.428 51.8205 190.591 51.2039L190.595 51.2014L203.302 44.5222L204 44.1554L204.698 44.5222L217.405 51.2014L217.405 51.2015C218.578 51.8184 219.963 50.8179 219.74 49.5068L195.858 19.0844ZM195.858 19.0844L196.207 18.3774L202.555 5.50571C202.555 5.50563 202.555 5.50556 202.555 5.50548C202.555 5.50537 202.555 5.50526 202.555 5.50515C203.144 4.31261 204.851 4.30972 205.446 5.50684C205.446 5.5072 205.446 5.50756 205.447 5.50791L211.794 18.3774L212.143 19.0844L212.923 19.1982L227.127 21.269L227.128 21.2692C228.443 21.4599 228.974 23.0867 228.018 24.0183L228.017 24.0187L217.741 34.0326L217.176 34.5833L217.309 35.3609L219.74 49.5057L195.858 19.0844Z" fill="#FFFEF4" stroke="black" stroke-width="3"/>
<path d="M254.858 19.0844L254.078 19.1982L239.873 21.269L239.872 21.2692C238.557 21.4599 238.026 23.0867 238.983 24.0183L238.983 24.0187L249.26 34.0326L249.825 34.5833L249.691 35.3609L247.261 49.5057C247.035 50.8265 248.428 51.8205 249.591 51.2039L249.595 51.2014L262.302 44.5222L263 44.1554L263.698 44.5222L276.405 51.2014L276.405 51.2015C277.578 51.8184 278.963 50.8179 278.74 49.5068L254.858 19.0844ZM254.858 19.0844L255.207 18.3774L261.555 5.50571C261.555 5.50563 261.555 5.50556 261.555 5.50548C261.555 5.50537 261.555 5.50526 261.555 5.50515C262.144 4.31261 263.851 4.30972 264.446 5.50684C264.446 5.5072 264.446 5.50756 264.447 5.50791L270.794 18.3774L271.143 19.0844L271.923 19.1982L286.127 21.269L286.128 21.2692C287.443 21.4599 287.974 23.0867 287.018 24.0183L287.017 24.0187L276.741 34.0326L276.176 34.5833L276.309 35.3609L278.74 49.5057L254.858 19.0844Z" fill="#FFFEF4" stroke="black" stroke-width="3"/>
</svg>
