<svg width="56" height="56" viewBox="0 0 56 56" fill="none" xmlns="http://www.w3.org/2000/svg">
<path d="M19.8578 19.0844L19.0777 19.1982L4.8735 21.269L4.8724 21.2692C3.55713 21.4599 3.02589 23.0867 3.98269 24.0183L3.98312 24.0187L14.2595 34.0326L14.8246 34.5833L14.691 35.3609L12.2606 49.5057C12.0346 50.8265 13.4276 51.8205 14.5906 51.2039L14.5953 51.2014L27.3022 44.5222L28.0002 44.1554L28.6981 44.5222L41.405 51.2014L41.4053 51.2015C42.5783 51.8184 43.9634 50.8179 43.7399 49.5068L19.8578 19.0844ZM19.8578 19.0844L20.2065 18.3774L26.5549 5.50571C26.5549 5.50563 26.555 5.50556 26.555 5.50548C26.555 5.50537 26.5551 5.50526 26.5552 5.50515C27.1445 4.31261 28.8515 4.30972 29.446 5.50684C29.4462 5.5072 29.4464 5.50756 29.4465 5.50791L35.7938 18.3774L36.1425 19.0844L36.9226 19.1982L51.1268 21.269L51.1279 21.2692C52.4432 21.4599 52.9744 23.0867 52.0176 24.0183L52.0172 24.0187L41.7408 34.0326L41.1757 34.5833L41.3093 35.3609L43.7397 49.5057L19.8578 19.0844Z" fill="#D2A01E" stroke="black" stroke-width="3"/>
</svg>
