<svg width="114" height="49" viewBox="0 0 114 49" fill="none" xmlns="http://www.w3.org/2000/svg">
<path d="M65.576 15.472V17.392C65.576 19.6533 64.9573 21.4667 63.72 22.832C62.4827 24.1973 60.7333 24.88 58.472 24.88C56.2107 24.88 54.4613 24.1973 53.224 22.832C51.9867 21.4667 51.368 19.6533 51.368 17.392V15.472C51.368 13.2107 51.976 11.408 53.192 10.064C54.4293 8.69867 56.1893 8.016 58.472 8.016C60.7547 8.016 62.504 8.69867 63.72 10.064C64.9573 11.408 65.576 13.2107 65.576 15.472ZM61.8 15.472C61.8 14.1707 61.512 13.1573 60.936 12.432C60.36 11.6853 59.5387 11.312 58.472 11.312C57.4053 11.312 56.584 11.6853 56.008 12.432C55.432 13.1573 55.144 14.1707 55.144 15.472V17.392C55.144 18.6933 55.432 19.7173 56.008 20.464C56.584 21.2107 57.4053 21.584 58.472 21.584C59.5387 21.584 60.36 21.2107 60.936 20.464C61.512 19.7173 61.8 18.6933 61.8 17.392V15.472Z" fill="#B22222"/>
<path d="M78.8542 11.696C77.8516 11.696 76.8916 11.856 75.9743 12.176C75.0782 12.4747 74.2142 12.9653 73.3822 13.648V24.56H69.7022V8.336H73.1902V10.832C74.2782 9.808 75.2489 9.08267 76.1022 8.656C76.9556 8.22933 77.8729 8.016 78.8542 8.016V11.696Z" fill="#B22222"/>
<path d="M91.7733 24.56L87.7732 17.808C87.1332 18.448 86.4613 19.088 85.7572 19.728V24.56H82.0772V0.880001H85.7572V15.664C86.9733 14.4267 88.0186 13.2427 88.8932 12.112C89.7892 10.96 90.6106 9.70133 91.3573 8.336H95.5813C94.8773 9.616 94.1093 10.832 93.2773 11.984C92.4453 13.136 91.5279 14.2987 90.5253 15.472L96.2213 24.56H91.7733Z" fill="#B22222"/>
<path d="M17.024 48.256C16.2133 48.256 15.808 48.0213 15.808 47.552C15.808 46.6133 17.3227 43.9893 20.352 39.68C21.7173 37.8027 23.168 35.8827 24.704 33.92C26.2827 31.9147 27.9253 29.888 29.632 27.84C28.0533 28.1387 26.6667 28.352 25.472 28.48C24.2773 28.608 23.3173 28.672 22.592 28.672C22.4213 28.6293 22.336 28.5227 22.336 28.352C22.336 28.0533 22.592 27.6907 23.104 27.264C23.616 26.8373 24.0427 26.624 24.384 26.624C24.4693 26.624 24.768 26.624 25.28 26.624C25.8347 26.624 26.5813 26.6027 27.52 26.56H30.784C31.424 25.7067 32.5333 24.1493 34.112 21.888C35.7333 19.6267 37.8453 16.6613 40.448 12.992C42.496 10.048 43.52 7.616 43.52 5.696C43.52 2.70933 41.3013 1.216 36.864 1.216C34.176 1.216 31.3173 1.70667 28.288 2.688C25.3013 3.66933 22.3573 4.992 19.456 6.656C16.5973 8.27733 14.0373 10.048 11.776 11.968C9.00267 14.3147 6.80533 16.832 5.184 19.52C3.56267 22.1653 2.752 24.5333 2.752 26.624C2.752 30.2507 5.12 31.9147 9.856 31.616C12.4587 31.4027 14.9973 29.8453 17.472 26.944C19.8613 24.0853 20.928 21.6533 20.672 19.648C21.7813 19.8613 22.336 20.5227 22.336 21.632C22.336 23.4667 21.184 25.5787 18.88 27.968C17.3013 29.5467 15.5307 30.8053 13.568 31.744C11.648 32.6827 9.62133 33.152 7.488 33.152C5.09867 33.152 3.24267 32.5333 1.92 31.296C0.64 30.016 0 28.3307 0 26.24C0 21.2053 3.072 16.128 9.216 11.008C11.904 8.78933 14.8053 6.86933 17.92 5.248C21.0347 3.584 24.2347 2.304 27.52 1.408C30.8053 0.469334 34.0267 0 37.184 0C40.2987 0 42.7733 0.533333 44.608 1.6C46.4427 2.624 47.36 4.13867 47.36 6.144C47.36 7.97867 46.528 10.0907 44.864 12.48C44.3093 13.3333 43.1787 14.9333 41.472 17.28C39.7653 19.6267 37.4613 22.6987 34.56 26.496L38.272 26.624C39.2533 26.6667 40.0213 26.7093 40.576 26.752C41.1307 26.752 41.4507 26.7307 41.536 26.688H41.92C42.688 26.688 43.072 26.8373 43.072 27.136C43.072 27.7333 42.24 28.032 40.576 28.032C40.5333 28.032 40.2987 28.032 39.872 28.032C39.488 28.032 38.9333 28.0107 38.208 27.968C37.568 27.9253 36.992 27.904 36.48 27.904C35.968 27.904 35.52 27.904 35.136 27.904C34.0267 27.9893 33.3653 28.096 33.152 28.224C32.2133 29.4187 31.168 30.7627 30.016 32.256C28.9067 33.7493 27.712 35.392 26.432 37.184C23.0613 41.8347 21.376 44.5653 21.376 45.376C21.376 45.632 21.5253 45.6747 21.824 45.504C22.1653 45.3333 22.4 45.2053 22.528 45.12C22.9973 45.12 23.232 45.184 23.232 45.312C23.232 45.5253 22.7627 45.8453 21.824 46.272L20.032 47.232C19.2213 47.9147 18.2187 48.256 17.024 48.256Z" fill="#B22222"/>
<path d="M103.508 23.64C104.041 23.64 104.481 23.5133 104.828 23.26C105.175 23.0067 105.388 22.6667 105.468 22.24C105.548 21.8 105.448 21.3133 105.168 20.78L107.008 19.66L110.048 25.56H107.548L106.668 23.58C106.481 24.22 106.095 24.7467 105.508 25.16C104.935 25.56 104.195 25.76 103.288 25.76C102.101 25.76 101.168 25.4267 100.488 24.76C99.8213 24.0933 99.488 23.2333 99.488 22.18C99.488 21.4333 99.6813 20.7333 100.068 20.08C100.468 19.4267 101.141 18.7933 102.088 18.18C101.435 17.6733 100.961 17.1667 100.668 16.66C100.375 16.14 100.228 15.5867 100.228 15C100.228 14.4 100.368 13.8533 100.648 13.36C100.928 12.8667 101.335 12.48 101.868 12.2C102.415 11.9067 103.081 11.76 103.868 11.76C105.001 11.76 105.901 12.0533 106.568 12.64C107.235 13.2267 107.568 14.04 107.568 15.08C107.568 15.7067 107.441 16.2467 107.188 16.7C106.948 17.1533 106.615 17.5667 106.188 17.94C105.761 18.3 105.261 18.66 104.688 19.02L103.288 19.92C102.688 20.3067 102.295 20.68 102.108 21.04C101.921 21.4 101.828 21.7467 101.828 22.08C101.828 22.6133 101.981 23.0067 102.288 23.26C102.608 23.5133 103.015 23.64 103.508 23.64ZM102.448 15.12C102.448 15.4133 102.528 15.74 102.688 16.1C102.861 16.46 103.155 16.8267 103.568 17.2C104.035 16.8933 104.388 16.64 104.628 16.44C104.868 16.2267 105.035 16.0267 105.128 15.84C105.221 15.6533 105.268 15.4467 105.268 15.22C105.268 14.74 105.135 14.3933 104.868 14.18C104.601 13.9533 104.275 13.84 103.888 13.84C103.488 13.84 103.148 13.9467 102.868 14.16C102.588 14.3733 102.448 14.6933 102.448 15.12Z" fill="#B22222"/>
<path d="M46.2 39.984V20.88H49.88V39.984C49.88 40.304 49.9547 40.6133 50.104 40.912C50.2747 41.1893 50.5947 41.328 51.064 41.328H51.576V44.72H50.68C49.464 44.72 48.536 44.4853 47.896 44.016C47.256 43.5467 46.808 42.9493 46.552 42.224C46.3173 41.4987 46.2 40.752 46.2 39.984Z" fill="#B22222"/>
<path d="M67.4277 44.72C66.3398 44.72 65.4651 44.496 64.8037 44.048C64.1637 43.6 63.6944 43.0453 63.3958 42.384C62.4784 43.2373 61.5931 43.8667 60.7397 44.272C59.8864 44.6773 58.9691 44.88 57.9878 44.88C56.5584 44.88 55.5024 44.4213 54.8198 43.504C54.1584 42.5867 53.8278 41.424 53.8278 40.016C53.8278 39.0773 53.9984 38.256 54.3397 37.552C54.7024 36.8267 55.2891 36.2613 56.0998 35.856C56.9104 35.4507 58.0197 35.248 59.4277 35.248C59.9824 35.248 60.5584 35.2907 61.1558 35.376C61.7531 35.44 62.3504 35.5253 62.9478 35.632V33.744C62.9478 32.848 62.7024 32.24 62.2118 31.92C61.7211 31.5787 61.0597 31.408 60.2277 31.408C59.5877 31.408 58.8838 31.4933 58.1157 31.664C57.3691 31.8347 56.5584 32.1013 55.6838 32.464L54.6278 29.328C56.7824 28.4533 58.7344 28.016 60.4837 28.016C62.0624 28.016 63.2784 28.2827 64.1318 28.816C65.0064 29.3493 65.6144 30.0533 65.9557 30.928C66.2971 31.8027 66.4678 32.7413 66.4678 33.744V39.984C66.4678 40.304 66.5531 40.6133 66.7237 40.912C66.9157 41.1893 67.2784 41.328 67.8118 41.328H68.1637V44.72H67.4277ZM57.3797 39.952C57.3797 40.528 57.5078 40.9867 57.7638 41.328C58.0198 41.648 58.3931 41.808 58.8838 41.808C59.3744 41.808 59.9291 41.68 60.5477 41.424C61.1664 41.168 61.9664 40.5707 62.9478 39.632V38.256C61.8384 38.064 60.7504 37.968 59.6838 37.968C58.8517 37.968 58.2544 38.1387 57.8918 38.48C57.5504 38.8213 57.3797 39.312 57.3797 39.952Z" fill="#B22222"/>
<path d="M83.7858 28.336L78.0257 44.56H74.6657L68.9057 28.336H72.6178L75.4017 36.432L76.4577 39.792L77.4818 36.432L80.1377 28.336H83.7858Z" fill="#B22222"/>
<path d="M99.826 35.472V37.392C99.826 39.6533 99.2073 41.4667 97.97 42.832C96.7327 44.1973 94.9833 44.88 92.722 44.88C90.4607 44.88 88.7113 44.1973 87.474 42.832C86.2367 41.4667 85.618 39.6533 85.618 37.392V35.472C85.618 33.2107 86.226 31.408 87.442 30.064C88.6793 28.6987 90.4393 28.016 92.722 28.016C95.0047 28.016 96.754 28.6987 97.97 30.064C99.2073 31.408 99.826 33.2107 99.826 35.472ZM96.05 35.472C96.05 34.1707 95.762 33.1573 95.186 32.432C94.61 31.6853 93.7887 31.312 92.722 31.312C91.6553 31.312 90.834 31.6853 90.258 32.432C89.682 33.1573 89.394 34.1707 89.394 35.472V37.392C89.394 38.6933 89.682 39.7173 90.258 40.464C90.834 41.2107 91.6553 41.584 92.722 41.584C93.7887 41.584 94.61 41.2107 95.186 40.464C95.762 39.7173 96.05 38.6933 96.05 37.392V35.472Z" fill="#B22222"/>
<path d="M113.104 31.696C112.102 31.696 111.142 31.856 110.224 32.176C109.328 32.4747 108.464 32.9653 107.632 33.648V44.56H103.952V28.336H107.44V30.832C108.528 29.808 109.499 29.0827 110.352 28.656C111.206 28.2293 112.123 28.016 113.104 28.016V31.696Z" fill="#B22222"/>
</svg>
