<svg width="48" height="48" viewBox="0 0 48 48" fill="none" xmlns="http://www.w3.org/2000/svg">
<path d="M24 48C10.7419 48 0 37.2581 0 24C0 10.7419 10.7419 0 24 0C37.2581 0 48 10.7419 48 24C48 37.2581 37.2581 48 24 48ZM26.7968 34.1032L19.4903 27.0968H37.1613C38.4484 27.0968 39.4839 26.0613 39.4839 24.7742V23.2258C39.4839 21.9387 38.4484 20.9032 37.1613 20.9032H19.4903L26.7968 13.8968C27.7355 12.9968 27.7548 11.4968 26.8355 10.5774L25.771 9.52258C24.8613 8.6129 23.3903 8.6129 22.4903 9.52258L9.64839 22.3548C8.73871 23.2645 8.73871 24.7355 9.64839 25.6355L22.4903 38.4774C23.4 39.3871 24.871 39.3871 25.771 38.4774L26.8355 37.4226C27.7548 36.5032 27.7355 35.0032 26.7968 34.1032Z" fill="#B22222"/>
</svg>
