<svg width="42" height="42" viewBox="0 0 42 42" fill="none" xmlns="http://www.w3.org/2000/svg">
<circle cx="21" cy="21" r="19.5" fill="#FFFEF4" stroke="#B22222" stroke-width="3"/>
<g clip-path="url(#clip0_389_292)">
<path d="M19.7118 12.7361H12.7361C12.2075 12.7361 11.7006 12.9461 11.3268 13.3199C10.953 13.6936 10.743 14.2006 10.743 14.7292V28.6806C10.743 29.2092 10.953 29.7161 11.3268 30.0899C11.7006 30.4636 12.2075 30.6736 12.7361 30.6736H26.6875C27.2161 30.6736 27.723 30.4636 28.0968 30.0899C28.4706 29.7161 28.6805 29.2092 28.6805 28.6806V21.7049" stroke="#B22222" stroke-width="3" stroke-linecap="round" stroke-linejoin="round"/>
<path d="M27.1857 11.2413C27.5822 10.8449 28.1198 10.6222 28.6805 10.6222C29.2412 10.6222 29.7788 10.8449 30.1753 11.2413C30.5717 11.6378 30.7945 12.1755 30.7945 12.7361C30.7945 13.2968 30.5717 13.8345 30.1753 14.2309L20.7083 23.6979L16.7222 24.6945L17.7187 20.7083L27.1857 11.2413Z" stroke="#B22222" stroke-width="3" stroke-linecap="round" stroke-linejoin="round"/>
</g>
<defs>
<clipPath id="clip0_389_292">
<rect width="23.9167" height="23.9167" fill="white" transform="translate(8.75 8.75)"/>
</clipPath>
</defs>
</svg>
