<svg width="21" height="23" viewBox="0 0 21 23" fill="none" xmlns="http://www.w3.org/2000/svg">
<path d="M0.75 4.13939H20.25C20.6642 4.13939 21 3.72757 21 3.21952V0.919863C21 0.411811 20.6642 0 20.25 0H0.75C0.335766 0 0 0.411811 0 0.919863V3.21952C0 3.72757 0.335766 4.13939 0.75 4.13939ZM0.75 13.338H20.25C20.6642 13.338 21 12.9262 21 12.4182V10.1185C21 9.61045 20.6642 9.19864 20.25 9.19864H0.75C0.335766 9.19864 0 9.61045 0 10.1185V12.4182C0 12.9262 0.335766 13.338 0.75 13.338ZM0.75 22.5367H20.25C20.6642 22.5367 21 22.1248 21 21.6168V19.3171C21 18.8091 20.6642 18.3973 20.25 18.3973H0.75C0.335766 18.3973 0 18.8091 0 19.3171V21.6168C0 22.1248 0.335766 22.5367 0.75 22.5367Z" fill="#B3B3B3"/>
</svg>
