<svg width="22" height="24" viewBox="0 0 22 24" fill="none" xmlns="http://www.w3.org/2000/svg">
<path d="M13.0625 19.5H14.1875C14.3367 19.5 14.4798 19.4407 14.5852 19.3352C14.6907 19.2298 14.75 19.0867 14.75 18.9375V8.8125C14.75 8.66332 14.6907 8.52024 14.5852 8.41475C14.4798 8.30926 14.3367 8.25 14.1875 8.25H13.0625C12.9133 8.25 12.7702 8.30926 12.6648 8.41475C12.5593 8.52024 12.5 8.66332 12.5 8.8125V18.9375C12.5 19.0867 12.5593 19.2298 12.6648 19.3352C12.7702 19.4407 12.9133 19.5 13.0625 19.5ZM20.75 3.75H16.887L15.2933 1.09219C15.0933 0.758914 14.8103 0.483137 14.472 0.29173C14.1338 0.100323 13.7517 -0.000184847 13.363 2.55209e-07H8.63703C8.24851 -2.29111e-05 7.86659 0.100562 7.52848 0.291961C7.19037 0.48336 6.90758 0.75905 6.70766 1.09219L5.11297 3.75H1.25C1.05109 3.75 0.860322 3.82902 0.71967 3.96967C0.579018 4.11032 0.5 4.30109 0.5 4.5L0.5 5.25C0.5 5.44891 0.579018 5.63968 0.71967 5.78033C0.860322 5.92098 1.05109 6 1.25 6H2V21.75C2 22.3467 2.23705 22.919 2.65901 23.341C3.08097 23.7629 3.65326 24 4.25 24H17.75C18.3467 24 18.919 23.7629 19.341 23.341C19.7629 22.919 20 22.3467 20 21.75V6H20.75C20.9489 6 21.1397 5.92098 21.2803 5.78033C21.421 5.63968 21.5 5.44891 21.5 5.25V4.5C21.5 4.30109 21.421 4.11032 21.2803 3.96967C21.1397 3.82902 20.9489 3.75 20.75 3.75ZM8.555 2.38641C8.58007 2.34468 8.61553 2.31018 8.65793 2.28627C8.70033 2.26236 8.7482 2.24986 8.79688 2.25H13.2031C13.2517 2.24994 13.2995 2.26248 13.3418 2.28639C13.3841 2.31029 13.4195 2.34475 13.4445 2.38641L14.263 3.75H7.73703L8.555 2.38641ZM17.75 21.75H4.25V6H17.75V21.75ZM7.8125 19.5H8.9375C9.08668 19.5 9.22976 19.4407 9.33525 19.3352C9.44074 19.2298 9.5 19.0867 9.5 18.9375V8.8125C9.5 8.66332 9.44074 8.52024 9.33525 8.41475C9.22976 8.30926 9.08668 8.25 8.9375 8.25H7.8125C7.66332 8.25 7.52024 8.30926 7.41475 8.41475C7.30926 8.52024 7.25 8.66332 7.25 8.8125V18.9375C7.25 19.0867 7.30926 19.2298 7.41475 19.3352C7.52024 19.4407 7.66332 19.5 7.8125 19.5Z" fill="#B3B3B3"/>
</svg>
