<svg width="18" height="16" viewBox="0 0 18 16" fill="none" xmlns="http://www.w3.org/2000/svg">
<path d="M18 4V14.2857C18 15.2321 17.2441 16 16.3125 16H1.6875C0.755859 16 0 15.2321 0 14.2857V4C0 3.05357 0.755859 2.28571 1.6875 2.28571H4.78125L5.21367 1.11071C5.45977 0.442857 6.08906 0 6.79219 0H11.2043C11.9074 0 12.5367 0.442857 12.7828 1.11071L13.2188 2.28571H16.3125C17.2441 2.28571 18 3.05357 18 4ZM13.2188 9.14286C13.2188 6.77857 11.3273 4.85714 9 4.85714C6.67266 4.85714 4.78125 6.77857 4.78125 9.14286C4.78125 11.5071 6.67266 13.4286 9 13.4286C11.3273 13.4286 13.2188 11.5071 13.2188 9.14286ZM12.0938 9.14286C12.0938 10.875 10.7051 12.2857 9 12.2857C7.29492 12.2857 5.90625 10.875 5.90625 9.14286C5.90625 7.41071 7.29492 6 9 6C10.7051 6 12.0938 7.41071 12.0938 9.14286Z" fill="#FFFEF4"/>
</svg>
